<?xml version="1.0" encoding="iso-8859-1"?>
<!-- Generator: Adobe Illustrator 18.0.0, SVG Export Plug-In . SVG Version: 6.00 Build 0)  -->
<!DOCTYPE svg PUBLIC "-//W3C//DTD SVG 1.1//EN" "http://www.w3.org/Graphics/SVG/1.1/DTD/svg11.dtd">
<svg version="1.1" id="Capa_1" xmlns="http://www.w3.org/2000/svg" xmlns:xlink="http://www.w3.org/1999/xlink" x="0px" y="0px"
	 viewBox="0 0 414.06 414.06" style="enable-background:new 0 0 414.06 414.06;" xml:space="preserve">
<g>
	<path style="fill:#808C93;" d="M172.984,216.29c0,0-6.592,30.032,1.465,48.344c0,0,36.624,21.242,44.681,41.019l-38.822,53.471
		l43.216,54.936h55.669l-9.522-16.115H245.5l-32.962-46.879l47.837-52.807c5.098-5.627,5.957-13.911,2.122-20.465l-33.844-57.843
		l-33.694-11.72"/>
	<path style="fill:#5B87A5;" d="M379.847,48.092c0,0,6.376-33.961-11.29-47.885c0,0-86.433-7.325-89.632,65.051L379.847,48.092z"/>
	<path style="fill:#A6B2BC;" d="M400.025,80.489c-0.72,0.87-1.48,1.72-2.27,2.55c-2.89,3.03-6.25,5.81-10.15,8
		c0,0-24.17-10.26-48.34-12.46c-24.18-2.2-24.18-2.2-24.18-2.2c-23.44,38.1-7.32,75.45-6.59,97.43
		c0.34,10.09-7.84,29.49-22.34,48.63l-0.01,0.02c-6.25,8.26-13.68,16.48-22.1,23.87c-4.65,4.09-9.61,7.93-14.84,11.39
		c-8.44,5.6-17.62,10.2-27.39,13.28c-3.03,0.97-6.13,1.78-9.28,2.43c-3.92,0.8-7.72,1.5-11.42,2.13
		c-25.32,4.24-45.3,4.41-58.89,3.53c-13.34-0.87-20.51-2.74-20.51-2.74c-65.92,43.95-115,40.29-115,40.29
		c56.39-25.63,88.63-97.42,88.63-97.42c25.63-31.49,87.16-60.8,87.16-60.8c21.29-6.01,62.92-6.31,82.75-6.08
		c0,0-7.3-87.67,35.91-111.12c0,0,21.38-8.66,44.13-10.08c5.27-0.33,10.5,1.07,14.91,3.99l30.32,20.01l16.67,5.5
		C407.195,60.639,409.005,69.779,400.025,80.489z"/>
	<path style="fill:#8A949B;" d="M201.119,275.559c-25.325,4.241-45.3,4.406-58.891,3.527c-4.373-24.359,7.636-56.266,7.636-56.266
		L201.119,275.559z"/>
	<path style="fill:#8A949B;" d="M249.21,257.715c-8.449,5.603-17.624,10.207-27.391,13.284l-15.877-7.834l13.097-22.095
		L249.21,257.715z"/>
	<path style="fill:#A6B2BC;" d="M151.01,216.29c0,0-6.592,30.032,1.465,48.344c0,0,36.624,21.242,44.681,41.019l-38.822,53.471
		l43.216,54.936h55.669l-9.522-16.115h-24.172l-32.962-46.879L238.4,298.26c5.098-5.627,5.957-13.911,2.122-20.465l-33.844-57.843
		l-33.694-11.72"/>
	<path style="fill:#8A949B;" d="M286.16,222.435l-0.011,0.022c-6.252,8.262-13.679,16.481-22.106,23.875l-8.284-21.249l9.614-26.666
		L286.16,222.435z"/>
	<path style="fill:#A6B2BC;" d="M279.072,190.062l14.039,6.45c0,0,10.987,32.962,8.057,57.134l26.543,15.926
		c1.796,1.078,3.226,2.671,4.104,4.573l0,0c1.831,3.968,0.995,8.656-2.095,11.746l-25.622,25.622l-20.509-5.86l22.707-10.255
		l9.486-14.064l-34.39-15.968l-16.847-48.344l0.827-18.6L279.072,190.062z"/>
	<path style="fill:#4D4D4D;" d="M351.984,50.749c0,0,0.824-2.472,9.064-5.494c0,0,5.494,0.824,7.966,5.494H351.984z"/>
	<path style="fill:#8A949B;" d="M397.755,83.039c-2.89,3.03-6.25,5.81-10.15,8c0,0-24.17-10.26-48.34-12.46
		c-24.18-2.2-24.18-2.2-24.18-2.2l15.97-13.04C331.055,63.339,375.465,70.739,397.755,83.039z"/>
	<circle style="fill:#8A949B;" cx="186.385" cy="176.339" r="8.96"/>
	<circle style="fill:#8A949B;" cx="164.385" cy="182.609" r="6.23"/>
	<circle style="fill:#8A949B;" cx="309.885" cy="49.109" r="6.23"/>
	<circle style="fill:#8A949B;" cx="175.388" cy="189.971" r="2.646"/>
	<circle style="fill:#8A949B;" cx="320.755" cy="42.269" r="2.646"/>
	<circle style="fill:#8A949B;" cx="198.015" cy="164.409" r="2.646"/>
	<circle style="fill:#8A949B;" cx="321.755" cy="54.127" r="2.646"/>
</g>
<g>
</g>
<g>
</g>
<g>
</g>
<g>
</g>
<g>
</g>
<g>
</g>
<g>
</g>
<g>
</g>
<g>
</g>
<g>
</g>
<g>
</g>
<g>
</g>
<g>
</g>
<g>
</g>
<g>
</g>
</svg>
