<?xml version="1.0" encoding="iso-8859-1"?>
<!-- Generator: Adobe Illustrator 18.0.0, SVG Export Plug-In . SVG Version: 6.00 Build 0)  -->
<!DOCTYPE svg PUBLIC "-//W3C//DTD SVG 1.1//EN" "http://www.w3.org/Graphics/SVG/1.1/DTD/svg11.dtd">
<svg version="1.1" id="Capa_1" xmlns="http://www.w3.org/2000/svg" xmlns:xlink="http://www.w3.org/1999/xlink" x="0px" y="0px"
	 viewBox="0 0 419.216 419.216" style="enable-background:new 0 0 419.216 419.216;" xml:space="preserve">
<g>
	<path style="fill:#C9D0D6;" d="M418.79,32.667l-1.19,3.55l-0.63,5.41c-0.2,1.72-1.43,3.14-3.11,3.59l-37.28,9.93
		c-0.02,0.38-0.04,0.79-0.05,1.2c-0.22,17.05,17.84,57.02,29.16,80.35c6.42,13.23,10.04,27.64,10.56,42.34
		c1.76,49.74-5.74,93.53-5.74,93.53c-13.67,19.25-34.45,38.81-52.9,54.32l-0.01,0.01c-5.51,4.64-10.82,8.91-15.66,12.7
		c-4.19,3.28-8.04,6.21-11.38,8.69c-7.93,5.92-12.99,9.38-12.99,9.38c-8.96,2.29-17.88,3.74-26.63,4.54
		c-0.19,0.03-0.39,0.06-0.59,0.07c-16.63,1.49-32.66,0.63-47.3-1.47c0,0-0.01,0-0.02,0c-1.07-0.15-2.12-0.31-3.17-0.48
		c0,0,0,0-0.01,0c-15.63-2.46-29.56-6.28-40.79-10.06c-9.3-3.12-16.74-6.21-21.77-8.47c-4.72-2.12-7.31-3.51-7.31-3.51
		c-3.33,3.13-8.23,6.49-14.08,9.9h-0.01c-28.23,16.47-78.39,34.29-78.39,34.29c-32.71,12.36-77.5,8.21-77.5,8.21
		c0.99,0.08,2.03,0.08,3.11,0c29.03-2.03,86.6-57.45,86.6-57.45c11.54-34.23,68.41-96.59,68.41-96.59
		c32.51-19.92,82.55-23.79,82.55-23.79c31.41,7.98,54.58,31.17,54.58,31.17c31.42,7.98,53.11-2.43,66.05-11.7
		c12.94-9.27,16.82-70.27,1.72-97.9c-8.71-15.95-12.13-43.48-13.46-63.91v-0.01c-0.38-5.9-0.59-11.22-0.71-15.49
		c-0.18-6.8,1.08-13.55,3.7-19.83l5.17-12.42l4.47-12.85c0.63-1.81,1.7-3.39,3.07-4.63c1.38-1.25,3.07-2.15,4.93-2.59
		c4.18-0.99,8.59,0.49,11.28,3.85c3.19,3.98,5.27,7.74,5.27,7.74c6.88,3.98,17.92,6.47,25.78,7.85
		C417.4,22.997,420.37,27.977,418.79,32.667z"/>
	<path style="fill:#BAC7D1;" d="M418.79,32.667l-1.19,3.55l-0.63,5.41c-0.2,1.72-1.43,3.14-3.11,3.59l-37.28,9.93
		c-0.02,0.38-0.04,0.79-0.05,1.2l-7.93-1.76c0,0-15.85-4.75-19.04,15.92c-0.38-5.9-0.59-11.22-0.71-15.49
		c-0.18-6.8,1.08-13.55,3.7-19.83l5.17-12.42l4.47-12.85c0.63-1.81,1.7-3.39,3.07-4.63c1.38-1.25,3.07-2.15,4.93-2.59
		c4.18-0.99,8.59,0.49,11.28,3.85c3.19,3.98,5.27,7.74,5.27,7.74c6.88,3.98,17.92,6.47,25.78,7.85
		C417.4,22.997,420.37,27.977,418.79,32.667z"/>
	<path style="fill:#BAC7D1;" d="M410.51,272.567c-13.67,19.25-34.45,38.81-52.9,54.32l-0.01,0.01c-5.51,4.64-10.82,8.91-15.66,12.7
		c-4.19,3.28-8.04,6.21-11.38,8.69c-7.93,5.92-12.99,9.38-12.99,9.38c-8.96,2.29-17.88,3.74-26.63,4.54
		c-0.19,0.03-0.39,0.06-0.59,0.07c-16.63,1.49-32.66,0.63-47.3-1.47c0,0-0.01,0-0.02,0c-1.07-0.15-2.12-0.31-3.17-0.48
		c0,0,0,0-0.01,0c-15.63-2.46-29.56-6.28-40.79-10.06c-9.3-3.12-16.74-6.21-21.77-8.47c-4.72-2.12-7.31-3.51-7.31-3.51
		c-3.33,3.13-8.23,6.49-14.08,9.9h-0.01c-28.23,16.47-78.39,34.29-78.39,34.29c-32.71,12.36-77.5,8.21-77.5,8.21
		c0.99,0.03,2.03,0.03,3.11,0c22.42-0.49,61.81-12.02,71.56-15.69l0.15-0.06c0.5-0.17,49.77-17.75,77.04-33.66l0.86-0.5
		c5.25-3.11,9.21-5.9,11.78-8.32l4.19-3.93l5.07,2.71c0.02,0.01,2.46,1.31,6.81,3.26c4.51,2.03,11.83,5.1,21.04,8.19
		c12.85,4.32,25.92,7.57,38.87,9.64h0.02l0.64,0.1c0.81,0.14,1.63,0.26,2.46,0.38h0.02l0.57,0.08c9.88,1.42,19.71,2.14,29.19,2.14
		c5.48,0,10.95-0.24,16.26-0.72h0.07l0.25-0.04l0.25-0.03c8.25-0.75,16.31-2.09,24-3.97c1.9-1.33,6.04-4.27,11.58-8.4
		c3.54-2.63,7.32-5.51,11.22-8.57c5.28-4.13,10.36-8.25,15.11-12.24l0.34-0.29c12.284-10.327,22.941-20.194,31.901-29.528
		c12.405-12.924,19.983-29.702,21.703-47.533c1.631-16.918,3.053-39.984,2.187-64.389c-0.48-13.6-3.76-26.77-9.76-39.13
		c-20.81-42.91-30.87-71.71-29.89-85.6l7.98,0.56c-1.15,16.3,17.52,57.66,29.11,81.55c6.42,13.23,10.04,27.64,10.56,42.34
		C418.01,228.777,410.51,272.567,410.51,272.567z"/>
	<path style="fill:#9AA5AD;" d="M239.85,360.327c-15.63-2.46-29.56-6.28-40.79-10.06l4.02-58.17c0,0,21.79,19.41,24.79,44.91
		C229.88,354.107,236.03,358.977,239.85,360.327z"/>
	<path style="fill:#9AA5AD;" d="M330.56,348.287c-7.93,5.92-12.99,9.38-12.99,9.38c-8.96,2.29-17.88,3.74-26.63,4.54
		c5.81-0.98,3.52-10.08,6.43-21.7c3-12,12.6-24.34,12.6-24.34L330.56,348.287z"/>
	<polygon style="fill:#9AA5AD;" points="339.949,312.955 357.61,326.888 341.938,339.595 	"/>
	<path style="fill:#9AA5AD;" d="M177.29,341.797c-4.72-2.12-7.31-3.51-7.31-3.51c-3.33,3.13-8.23,6.49-14.08,9.9h-0.01l-7.33-27.74
		l26.81,12.56L177.29,341.797z"/>
	<path style="fill:#C9D0D6;" d="M193.529,280.831c0,0,18.204,18.204,22.487,36.407c0,0,5.354,54.611-1.071,76.026l16.062,4.283
		l-7.496,19.274h-38.549c0,0-2.142-44.973,5.354-53.54c0,0-32.124-21.416-41.761-42.832l9.637-24.628L193.529,280.831z"/>
	<path style="fill:#C9D0D6;" d="M339.949,312.955c0,0,26.77,36.407,26.77,78.168l22.487,7.496l-7.496,18.204h-43.903l-1.071-20.345
		c0,0-10.708-31.053-29.982-41.761c0,0-4.283-19.274,3.212-38.549L339.949,312.955z"/>
	<polygon style="fill:#9AA5AD;" points="214.945,393.264 199.37,396.007 216.925,383.139 	"/>
	<polygon style="fill:#9AA5AD;" points="366.719,391.123 354.37,395.007 366.299,381.97 	"/>
	<path style="fill:#9AA5AD;" d="M417.6,36.217l-35.563,7.957c0,0,9.84-7.347,36.753-11.507L417.6,36.217z"/>
	<path style="fill:#4D4D4D;" d="M377.037,16.507c0,0,4.456,1.779,6.821,6.576l-2.004,1.982c0,0-5.334-1.544-8.434-3.396
		C373.42,21.67,374.244,16.89,377.037,16.507z"/>
</g>
<g>
</g>
<g>
</g>
<g>
</g>
<g>
</g>
<g>
</g>
<g>
</g>
<g>
</g>
<g>
</g>
<g>
</g>
<g>
</g>
<g>
</g>
<g>
</g>
<g>
</g>
<g>
</g>
<g>
</g>
</svg>
