<?xml version="1.0" encoding="iso-8859-1"?>
<!-- Generator: Adobe Illustrator 18.0.0, SVG Export Plug-In . SVG Version: 6.00 Build 0)  -->
<!DOCTYPE svg PUBLIC "-//W3C//DTD SVG 1.1//EN" "http://www.w3.org/Graphics/SVG/1.1/DTD/svg11.dtd">
<svg version="1.1" id="Capa_1" xmlns="http://www.w3.org/2000/svg" xmlns:xlink="http://www.w3.org/1999/xlink" x="0px" y="0px"
	 viewBox="0 0 459.278 459.278" style="enable-background:new 0 0 459.278 459.278;" xml:space="preserve">
<g>
	<path style="fill:#729DA0;" d="M167.091,200.105l-18.897,21.567l8.605,55.532c0,0-36.415,6.069-53.819,24.908
		c0,0,9.726,25.416,1.914,48.324l39.105,21.406l0.451-16.3l-18.946-10.371l4.691-38.799c0,0,60.443-6.781,72.007-14.951
		c0,0,4.041-46.246-4.623-62.808C188.917,212.052,167.091,200.105,167.091,200.105z"/>
	<polygon style="fill:#729DA0;" points="213.396,355.069 232.063,365.865 208.729,365.865 	"/>
	<path style="fill:#91BEC4;" d="M459.278,147.72c0,0-50.8-42.507-133.74-33.176c0,0-21.772,44.58-49.764,61.168
		c0,0-49.764-7.257-82.94-2.073c0,0-52.874,18.94-94.344,73.609c0,0-22.808,30.066-98.491,44.58c0,0,97.454,0,128.556-10.367
		l55.984-25.919c0,0,71.535-4.147,93.307-23.845c0,0,41.47-67.388,73.609-70.499l13.478,13.478c0,0,37.323-9.331,70.499-3.11
		l5.184-11.404l11.404,3.11L459.278,147.72z"/>
	<path style="fill:#DD8D6B;" d="M435.504,133.064c0,0-3.178-18.519-13.549-27.85c0,0-43.74-18.468-69.104-17.758
		c-1.545,0.043-2.857,1.127-3.233,2.627c-0.647,2.578-1.162,6.675,0.801,9.947c3.11,5.184,20.93,4.615,23.943,14.748"/>
	<polygon style="fill:#729DA0;" points="440.617,160.161 375.302,150.831 365.971,159.125 380.729,157.865 438.145,165.599 	"/>
	<path style="fill:#4D4D4D;" d="M372.456,136.346c0,0,8.585,4.307,18.911,1.474l0.304-5.636c0,0-9.401-5.934-16.292-8.115
		C375.38,124.069,369.318,131.655,372.456,136.346z"/>
	<path style="fill:#729DA0;" d="M152.401,235.844c0,0,8.799,17.279,0.563,34.317l19.016-8.804L152.401,235.844z"/>
	<polygon style="fill:#729DA0;" points="208.794,227.967 236.054,248.494 223.314,250.957 	"/>
	<path style="fill:#729DA0;" d="M263.786,223.177c0,0-4.241,14.601-9.982,20.644l16.255-6.738L263.786,223.177z"/>
	<polygon style="fill:#729DA0;" points="286.142,195.411 297.481,203.932 284.12,222.153 	"/>
	<path style="fill:#91BEC4;" d="M158.622,207.852l-6.22,27.992l34.213,44.58c0,0-29.029,22.808-35.249,47.69
		c0,0,20.735,17.625,24.882,41.47h44.58l-7.431-14.514h-21.598l-14.514-36.286c0,0,49.764-34.97,55.984-47.69
		c0,0-18.661-42.507-34.213-52.874C183.504,207.852,158.622,207.852,158.622,207.852z"/>
	<path style="fill:#91BEC4;" d="M320.353,271.088c-5.18,12.72-26.95,19.7-26.95,19.7l9.33-13.47l-5.19-14.52l-26.95,13.48
		c-11.41-18.66-6.22-59.1-6.22-59.1l21.77-21.77c18.45,28.71-3.65,57.42-4.14,58.05l23.84-13.47
		C312.063,248.288,320.353,271.088,320.353,271.088z"/>
	<path style="fill:#729DA0;" d="M320.353,271.088c-5.18,12.72-26.95,19.7-26.95,19.7l9.33-13.47L320.353,271.088z"/>
</g>
<g>
</g>
<g>
</g>
<g>
</g>
<g>
</g>
<g>
</g>
<g>
</g>
<g>
</g>
<g>
</g>
<g>
</g>
<g>
</g>
<g>
</g>
<g>
</g>
<g>
</g>
<g>
</g>
<g>
</g>
</svg>
