<?xml version="1.0" encoding="iso-8859-1"?>
<!-- Generator: Adobe Illustrator 18.0.0, SVG Export Plug-In . SVG Version: 6.00 Build 0)  -->
<!DOCTYPE svg PUBLIC "-//W3C//DTD SVG 1.1//EN" "http://www.w3.org/Graphics/SVG/1.1/DTD/svg11.dtd">
<svg version="1.1" id="Capa_1" xmlns="http://www.w3.org/2000/svg" xmlns:xlink="http://www.w3.org/1999/xlink" x="0px" y="0px"
	 viewBox="0 0 463.157 463.157" style="enable-background:new 0 0 463.157 463.157;" xml:space="preserve">
<g>
	<path style="fill:#C9D0D6;" d="M462.37,221.189c-1.39,3.58-4.49,6.22-8.25,7.05l-48.69,10.66c-9.39,2.06-18.08,6.35-25.64,12.26
		c-22.86,17.87-54.65,27-88.38,30.92c-5.13,0.59-10.31,1.07-15.51,1.44c-3.83,0.27-7.66,0.48-11.5,0.64
		c-13.97,0.58-27.96,0.46-41.49-0.14c-37.12-1.63-70.75-6.79-91.02-10.42c-14.24-2.57-45.08-7.39-71.98-11.46
		c-12.42-1.89-24.02-3.61-32.74-4.88c-0.13-0.72-0.31-1.43-0.49-2.14c0.5-1.91,0.86-3.88,1.06-5.9c9.13-3.59,18.42-7.63,27.13-11.65
		c23.58-10.84,42.85-21.37,42.85-21.37c16.36-12.73,32.14-22.95,46.5-31.08c10.31-5.83,19.88-10.61,28.4-14.48
		c2.09-0.95,4.12-1.84,6.08-2.68c14.2-6.08,24.82-9.41,30.1-10.91c-3.89-16.57-11.59-29.01-11.59-29.01
		c33.72,4,54.95,29.11,54.95,29.11c10.16,0.82,19.18,1.97,26.89,3.19c11.74,1.87,32.45,6.59,46.98,10.04
		c10.5,2.49,19.73,8.75,25.95,17.57l8.12,11.54c0,0,54.59-1.45,85.75,2.69c5.03,0.68,9.73,2.87,13.5,6.27
		c2.34,2.09,3.65,4.99,3.79,7.99C463.23,218.029,462.97,219.649,462.37,221.189z"/>
	<path style="fill:#C9D0D6;" d="M62.462,255.121l-3.349,7.019l-5.041,10.528l-18.279,30.465L0,335.119
		c0.444-0.63,26.679-40.962,26.681-79.998C26.684,214.807,0.441,175.75,0,175.123l35.792,31.985l18.279,30.465L62.462,255.121z"/>
	<circle style="fill:#4D4D4D;" cx="324.667" cy="192.625" r="6.859"/>
	<path style="fill:#9AA5AD;" d="M271.796,278.933l-7.396,5.224c-13.969,0.583-27.961,0.457-41.485-0.137v-0.011l12.015-8.791
		l4.916-13.615L271.796,278.933z"/>
	<path style="fill:#9AA5AD;" d="M291.412,282.076c-5.133,0.594-10.311,1.074-15.512,1.44l5.899-12.872l8.414-5.796
		C290.212,264.849,293.31,273.503,291.412,282.076z"/>
	<path style="fill:#C9D0D6;" d="M290.211,264.848c-4.671,24.524-37.516,57.479-37.516,57.479
		c-9.026,5.867-18.925,7.897-27.673,8.179c-9.457,0.305-14.735-10.777-8.581-17.964c11.91-13.908,21.073-31.089,21.073-31.089
		l2.336-19.853C246.856,253.426,290.211,264.848,290.211,264.848z"/>
	<polygon style="fill:#9AA5AD;" points="137.992,248.911 102.828,268.779 119.471,271.788 	"/>
	<path style="fill:#C9D0D6;" d="M137.992,248.911c0,0-31.047,25.271-36.824,41.156c0,0,5.776,2.888,22.383-0.722
		c16.607-3.61,33.935-24.549,33.935-24.549l-2.888-10.83L137.992,248.911z"/>
	<path style="fill:#9AA5AD;" d="M462.37,221.189l-38.86,8.28l-25-3l-30.5,13l-50-8l-21,3l21-10l48.5,6.5l31.5-12.5l25,5l40.13-7.03
		C463.23,218.029,462.97,219.649,462.37,221.189z"/>
</g>
<g>
</g>
<g>
</g>
<g>
</g>
<g>
</g>
<g>
</g>
<g>
</g>
<g>
</g>
<g>
</g>
<g>
</g>
<g>
</g>
<g>
</g>
<g>
</g>
<g>
</g>
<g>
</g>
<g>
</g>
</svg>
