<?xml version="1.0" encoding="iso-8859-1"?>
<!-- Generator: Adobe Illustrator 18.0.0, SVG Export Plug-In . SVG Version: 6.00 Build 0)  -->
<!DOCTYPE svg PUBLIC "-//W3C//DTD SVG 1.1//EN" "http://www.w3.org/Graphics/SVG/1.1/DTD/svg11.dtd">
<svg version="1.1" id="Capa_1" xmlns="http://www.w3.org/2000/svg" xmlns:xlink="http://www.w3.org/1999/xlink" x="0px" y="0px"
	 viewBox="0 0 408.507 408.507" style="enable-background:new 0 0 408.507 408.507;" xml:space="preserve">
<g>
	<path style="fill:#CE7859;" d="M319.037,53.413c0,0-16.673-19.066-2.673-38.566s46.5-18.5,62.5-4.5
		c2.406,2.105,4.315,4.268,5.821,6.421c5.771,8.253-0.411,19.372-10.48,19.568c-6.806,0.133-14.634,3.719-20.341,16.511
		L319.037,53.413z"/>
	<path style="fill:#DD8D6B;" d="M321.471,48.373c-3.232-4.623-10.425-17.544-1.045-30.61C326.249,9.652,336.568,5,348.738,5
		c10.283,0,20.315,3.405,26.834,9.109c1.972,1.725,3.659,3.584,5.017,5.524c2.22,3.174,1.09,6.209,0.501,7.366
		c-1.351,2.657-3.961,4.278-6.982,4.337c-6.94,0.135-16.425,3.204-23.404,16.561L321.471,48.373z"/>
	<path style="fill:#808C93;" d="M156.175,186.41c0,0-19.016,24.161-19.739,44.155c0,0,23.714,35.074,22.352,56.386l-58.237,31.222
		l14.971,68.275L159.416,406l-1.552-18.653l-22-10l-2.792-52.389l66.062-26.697c7.04-2.845,11.422-9.927,10.825-17.497
		l-5.269-66.809l-25.225-25.226"/>
	<path style="fill:#A6B2BC;" d="M394.12,68.592c1.852,1.267,2.607,3.624,1.828,5.729c-1.583,4.278-3.927,11.007-4.394,11.495
		c-0.95,1-1.97,1.97-3.05,2.89c-1.18,1-2.53,1.7-3.97,2.1c-2.18,0.62-4.56,0.54-6.77-0.26c-7.37-2.67-22.79-14.58-35.59-8.5
		c-9.56,4.55-12.21-1.11-15.21-1.38c-0.1,0.49-0.21,0.98-0.34,1.49c-7.08,27.81,45.07,63.52,21.74,89.52
		c-9.2,10.25-21.49,16.03-33.01,19.26c-5.54,1.56-10.23,5.24-13.13,10.2c-3,5.14-6.52,10.45-10.53,15.75l-0.01,0.02
		c-6.25,8.26-13.68,16.48-22.1,23.87c-4.65,4.09-9.61,7.93-14.84,11.39c-8.44,5.6-17.62,10.2-27.39,13.28
		c-3.03,0.97-6.13,1.78-9.28,2.43c-3.92,0.8-7.72,1.5-11.42,2.13c-25.32,4.24-45.3,4.41-58.89,3.53
		c-13.34-0.87-20.51-2.74-20.51-2.74c-65.92,43.95-115,40.29-115,40.29c56.39-25.63,88.63-97.42,88.63-97.42
		c25.63-31.49,87.16-60.8,87.16-60.8c16.685-4.71,58.038-5.833,75.14-6.181c5.195-0.106,10.376,0.477,15.425,1.703
		c9.118,2.213,18.152,4.638,26.635,8.308c2.99,1.29,6.54,0.86,8.92-1.35c7.64-7.11-6.47-22.33-6.47-22.33
		c-23-26.5-18.41-52.71-14.68-64.16c0.89-2.75,6.48-9.52,11.58-14.2c2.76-2.53,6.01-4.45,9.55-5.66c6.42-2.21,19.48-6.15,33.12-7
		c4.45-0.28,8.87,0.9,12.59,3.37C359.854,45.367,385.01,62.361,394.12,68.592z"/>
	<path style="fill:#8A949B;" d="M206.655,270.005c-25.325,4.241-45.3,4.406-58.891,3.527c-4.373-24.359,7.636-56.266,7.636-56.266
		L206.655,270.005z"/>
	<path style="fill:#8A949B;" d="M254.746,252.162c-8.449,5.603-17.624,10.207-27.391,13.284l-15.877-7.834l13.097-22.095
		L254.746,252.162z"/>
	<path style="fill:#A6B2BC;" d="M156.546,210.736c0,0-6.592,30.032,1.465,48.344c0,0,36.624,21.242,44.681,41.019l-38.822,53.471
		l43.216,54.936h44.277l-9.522-16.115h-12.78L196.1,345.513l47.837-52.807c5.098-5.627,5.957-13.911,2.122-20.465l-33.844-57.843
		l-33.694-11.72"/>
	<path style="fill:#8A949B;" d="M291.697,216.882l-0.011,0.022c-6.252,8.262-13.679,16.481-22.106,23.875l-8.284-21.249
		l9.614-26.666L291.697,216.882z"/>
	<path style="fill:#A6B2BC;" d="M284.609,184.509l14.039,6.45c0,0,10.987,32.962,8.057,57.134l26.543,15.926
		c1.796,1.078,3.226,2.671,4.104,4.573l0,0c1.831,3.968,0.995,8.656-2.095,11.746l-13.392,14.51l-19.13-0.894l9.098-4.109
		l9.486-14.064l-34.39-15.968l-16.847-48.344l0.827-18.6L284.609,184.509z"/>
	<circle style="fill:#4D4D4D;" cx="349.122" cy="55.586" r="4.503"/>
	<path style="fill:#8A949B;" d="M326.962,80.666c0,0-8.598-9.319-4.098-19.319c0,0-9.629,18.255,3.186,28.378L326.962,80.666z"/>
	<path style="fill:#8A949B;" d="M388.504,88.707c-1.18,1-2.53,1.7-3.97,2.1c-8.33-6.03-25.67-13.21-36.17-14.21
		c-10.23-0.97-11.68-6.69-11.74-6.99c0.26,0.17,4.45,2.99,10.99,2.99C363.614,72.347,388.504,88.707,388.504,88.707z"/>
	<polygon style="fill:#8A949B;" points="229.062,392.392 214.864,392.392 222.826,383.522 	"/>
</g>
<g>
</g>
<g>
</g>
<g>
</g>
<g>
</g>
<g>
</g>
<g>
</g>
<g>
</g>
<g>
</g>
<g>
</g>
<g>
</g>
<g>
</g>
<g>
</g>
<g>
</g>
<g>
</g>
<g>
</g>
</svg>
