<?xml version="1.0" encoding="iso-8859-1"?>
<!-- Generator: Adobe Illustrator 18.0.0, SVG Export Plug-In . SVG Version: 6.00 Build 0)  -->
<!DOCTYPE svg PUBLIC "-//W3C//DTD SVG 1.1//EN" "http://www.w3.org/Graphics/SVG/1.1/DTD/svg11.dtd">
<svg version="1.1" id="Capa_1" xmlns="http://www.w3.org/2000/svg" xmlns:xlink="http://www.w3.org/1999/xlink" x="0px" y="0px"
	 viewBox="0 0 475.14 475.14" style="enable-background:new 0 0 475.14 475.14;" xml:space="preserve">
<g>
	<path style="fill:#9DBFD6;" d="M473.31,215.368v-0.01l-6.72-1.42l-1.85,8.35c-17.12-0.49-62.51-0.86-85.25,8c0,0-12.47,0-26.19-3.6
		c-9.67-2.54-19.96-0.05-27.46,6.55c-5.09,4.46-11.29,9.8-17.96,15.29c-0.13,0.16-0.28,0.3-0.44,0.43
		c-2.48,2.01-4.93,3.98-7.28,5.83c-2.23,1.78-4.49,3.54-6.74,5.28l-0.01-0.01c-5.93,4.59-10.07,7.66-10.07,7.66
		c-6.33,5.08-17.9,8.95-30.21,11.84c-9.62,2.26-19.69,3.92-28.07,5.08c-11.23,1.56-19.43,2.21-19.43,2.21
		c-33.48-3.59-69.34-13.15-69.34-13.15s10.76-4.78-35.87-13.15c-24.46-4.4-50.9,4.71-70.51,14.35
		c-17.49,8.6-29.54,17.64-29.91,17.92c27.49-41.84,70.53-82.48,70.53-82.48c14.31-11.13,28.12-20.07,40.68-27.19
		c9.02-5.1,17.39-9.28,24.84-12.66c1.83-0.83,3.61-1.61,5.32-2.35c18.13-7.76,29.59-10.41,29.59-10.41c1.41-0.03,2.82-0.06,4.2-0.07
		c11.1-0.13,21.32,0.3,30.47,1.03c8.89,0.71,16.78,1.72,23.53,2.79c16.98,2.69,26.68,5.81,26.68,5.81c1.34,0.63,2.63,1.3,3.88,2.01
		c4.88,2.77,9.03,6.09,12.43,9.36c0.07,0.07,0.16,0.15,0.24,0.23c4.76,4.68,10.47,8.27,16.81,10.33c9.22,3,20.91,4.8,32.74,1.28
		c0,0,15.42-4.47,25.33-11.94c6.84-5.15,15.38-7.52,23.88-6.47c23.65,2.94,67.93,11.51,103.99,36.09L473.31,215.368z"/>
	<path style="fill:#769CAD;" d="M466.59,213.938l-1.42,6.41c-8.09-2.65-22.91-6.98-38.13-8.83c-22.68-2.74-57.72,6.88-68.03,4.81
		c-9.08-1.82-11.77-10.04-12.27-11.96c2.17,7.15,26.44,7.08,49.38,3.03C414.42,204.168,451.42,210.888,466.59,213.938z"/>
	<path style="fill:#769CAD;" d="M468.89,214.418c1.72,0.35,3,0.63,3.73,0.79L468.89,214.418z"/>
	<path style="fill:#769CAD;" d="M473.28,215.348c-0.06-0.01-0.2-0.04-0.42-0.09L473.28,215.348z"/>
	<path style="fill:#769CAD;" d="M253.13,279.558c-9.62,2.26-19.69,3.92-28.07,5.08l16.72-11.92l7.58-15.5L253.13,279.558z"/>
	<path style="fill:#9DBFD6;" d="M293.415,260.063c-4.086,21.453-32.818,50.281-32.818,50.281
		c-7.896,5.132-16.555,6.908-24.208,7.155c-8.272,0.267-12.89-9.427-7.507-15.714c10.418-12.167,18.434-27.196,18.434-27.196
		l2.043-17.367C255.489,250.072,293.415,260.063,293.415,260.063z"/>
	<circle style="fill:#4D4D4D;" cx="387.78" cy="190.218" r="5.5"/>
	<circle style="fill:#769CAD;" cx="168.28" cy="175.218" r="7.5"/>
	<circle style="fill:#769CAD;" cx="259.53" cy="187.968" r="7.5"/>
	<circle style="fill:#769CAD;" cx="205.28" cy="171.718" r="7.5"/>
	<circle style="fill:#769CAD;" cx="186.78" cy="169.218" r="4.5"/>
	<circle style="fill:#769CAD;" cx="367.28" cy="182.218" r="4.5"/>
	<circle style="fill:#769CAD;" cx="63.28" cy="231.718" r="4.5"/>
	<circle style="fill:#769CAD;" cx="247.03" cy="177.218" r="4.5"/>
	<circle style="fill:#769CAD;" cx="47.78" cy="242.218" r="4.5"/>
	<circle style="fill:#769CAD;" cx="182.28" cy="180.968" r="2.875"/>
	<circle style="fill:#769CAD;" cx="360.78" cy="191.718" r="2.875"/>
	<circle style="fill:#769CAD;" cx="356.28" cy="183.718" r="2.875"/>
	<circle style="fill:#769CAD;" cx="57.28" cy="240.718" r="2.875"/>
	<polygon style="fill:#769CAD;" points="150.634,252.178 164.125,271.945 161.481,279.584 136.287,273.7 	"/>
	<path style="fill:#769CAD;" d="M123.132,243.805l-11.579,18.888c-3.291-0.686-6.982-1.404-11.13-2.148
		c-4.303-0.776-8.672-1.127-13.049-1.135L123.132,243.805z"/>
	<path style="fill:#9DBFD6;" d="M123.135,243.809c0,0-51.41,41.845-60.974,68.148c0,0,9.565,4.782,37.063-1.196
		s56.192-40.65,56.192-40.65l-4.782-17.934L123.135,243.809z"/>
</g>
<g>
</g>
<g>
</g>
<g>
</g>
<g>
</g>
<g>
</g>
<g>
</g>
<g>
</g>
<g>
</g>
<g>
</g>
<g>
</g>
<g>
</g>
<g>
</g>
<g>
</g>
<g>
</g>
<g>
</g>
</svg>
