<?xml version="1.0" encoding="iso-8859-1"?>
<!-- Generator: Adobe Illustrator 18.0.0, SVG Export Plug-In . SVG Version: 6.00 Build 0)  -->
<!DOCTYPE svg PUBLIC "-//W3C//DTD SVG 1.1//EN" "http://www.w3.org/Graphics/SVG/1.1/DTD/svg11.dtd">
<svg version="1.1" id="Capa_1" xmlns="http://www.w3.org/2000/svg" xmlns:xlink="http://www.w3.org/1999/xlink" x="0px" y="0px"
	 viewBox="0 0 376.635 376.635" style="enable-background:new 0 0 376.635 376.635;" xml:space="preserve">
<g>
	<polyline style="fill:#BCB88E;" points="81.993,76.701 100.782,61.755 115.728,72.857 116.155,88.657 103.771,79.263 
		98.523,88.043 86.263,88.657 	"/>
	<polyline style="fill:#BCB88E;" points="340.609,158.366 342.4,134.424 324.814,128.31 311.51,136.843 326.242,141.799 
		321.934,151.077 328.321,161.559 	"/>
	<polygon style="fill:#B29E47;" points="141.394,306.577 131.199,344.78 126.103,349.204 123.337,342.164 123.026,357.253 
		136.833,352.952 146.689,309.159 	"/>
	<polygon style="fill:#B29E47;" points="201.146,315.02 190.951,353.223 185.855,357.647 183.09,350.607 182.779,365.697 
		196.585,361.395 206.441,317.602 	"/>
	<path style="fill:#D1CF99;" d="M376.635,151.86l-16.649,75.58l-39.719,67.894l-52.521,39.719c0,0,23.002-42.544-24.706-55.745
		c-2.64-0.731-5.505-1.374-8.602-1.91l-9.888,0.127l-81.747,1.072l-7.005,0.088c0,0-3.829-5.738-12.529-10.736
		c-7.209-4.15-17.78-7.774-32.305-7.2c-32.032,1.276-60.217,65.332-60.217,65.332L3.848,251.777L0,163.386l35.871-90.954
		l96.088-61.493c0,0-53.806,80.705-28.184,120.424c25.622,39.709,67.894,16.65,80.705-11.535c0,0-24.414-5.095-55.083-2.562
		c0,0,21.774-38.433,85.829-46.12c9.732-1.169,19.465-1.685,28.983-1.715c53.056-0.214,99.118,14.526,99.118,14.526
		s-2.971,2.504-8.544,6.186c-9.245,6.108-25.661,15.471-47.62,22.076l-0.088,0.029c-6.332,1.91-13.113,3.575-20.313,4.871
		c-12.197,2.202-25.602,3.332-40.011,2.708c0,0-14.087,44.844,38.433,55.092c52.53,10.239,101.202-70.466,101.202-94.802
		L376.635,151.86z"/>
	<path style="fill:#BCB88E;" d="M156.295,212.067l-3.843,57.225c0,0-4.33,4.971-9.646,9.301l-7.007,0.09
		c0,0-3.83-5.739-12.529-10.735C129.521,234.152,156.295,212.067,156.295,212.067z"/>
	<path style="fill:#BCB88E;" d="M243.036,279.31c-2.639-0.73-5.496-1.371-8.596-1.909l-9.89,0.128l15.014-23.187
		C239.564,254.342,244.804,266.282,243.036,279.31z"/>
	<path style="fill:#D1CF99;" d="M156.295,212.067c0,0-29.133,45.318-19.071,100.305c1.108,6.053,9.13,7.56,12.404,2.35
		c5.333-8.487,11.64-20.061,14.354-30.916l30.746,1.281c0,0-2.323,20.134,0.858,37.524c1.086,5.936,8.861,7.536,12.267,2.554
		c11.335-16.58,30.807-48.183,31.713-70.824L156.295,212.067z"/>
	<path style="fill:#BCB88E;" d="M81.993,76.701c2.587,7.245,3.587,14.949,3.004,22.619c-1.098,14.445-0.776,40.184,12.796,55.526
		c19.643,22.205,47.827,23.059,62.345,20.07l-2.989,19.216c0,0-76.864-10.676-76.01-74.302
		C81.566,92.073,81.993,76.701,81.993,76.701L81.993,76.701z"/>
	<path style="fill:#BCB88E;" d="M236.415,190.852c0,0,68.196,12.99,95.474-29.227c0,0-0.649,12.34-10.392,23.381
		c-9.742,11.041-59.103,25.33-81.835,22.082L236.415,190.852z"/>
	<path style="fill:#BCB88E;" d="M211.085,125.904c0,0-5.845,25.979-1.299,51.959C209.786,177.863,198.096,151.883,211.085,125.904z"
		/>
	<circle style="fill:#4D4D4D;" cx="234.467" cy="80.765" r="5.521"/>
	<path style="fill:#B29E47;" d="M343.327,83.957c0,0-2.971,2.504-8.544,6.186c-9.245,6.108-25.661,15.471-47.62,22.076l-0.088,0.029
		l-20.313,4.871l-21.257-21.092v0c6.582-6.582,6.945-17.137,0.83-24.156l-2.126-2.44C297.265,69.217,343.327,83.957,343.327,83.957z
		"/>
	<path style="fill:#917F34;" d="M245.505,96.028c0,0,32.299-13.75,97.822-12.071c0,0-69.841,9.422-90.974,18.865L245.505,96.028z"/>
</g>
<g>
</g>
<g>
</g>
<g>
</g>
<g>
</g>
<g>
</g>
<g>
</g>
<g>
</g>
<g>
</g>
<g>
</g>
<g>
</g>
<g>
</g>
<g>
</g>
<g>
</g>
<g>
</g>
<g>
</g>
</svg>
