<?xml version="1.0" encoding="iso-8859-1"?>
<!-- Generator: Adobe Illustrator 18.0.0, SVG Export Plug-In . SVG Version: 6.00 Build 0)  -->
<!DOCTYPE svg PUBLIC "-//W3C//DTD SVG 1.1//EN" "http://www.w3.org/Graphics/SVG/1.1/DTD/svg11.dtd">
<svg version="1.1" id="Capa_1" xmlns="http://www.w3.org/2000/svg" xmlns:xlink="http://www.w3.org/1999/xlink" x="0px" y="0px"
	 viewBox="0 0 472.141 472.141" style="enable-background:new 0 0 472.141 472.141;" xml:space="preserve">
<g>
	<path style="fill:#DBD6A9;" d="M400.834,110.697c0,0,2.506-4.115,15.506-2.115c0,0,10.777,5.099,15.888,20.549
		c0,0-19.991-7.596-25.19,12.427s-23.959-16.058-23.959-16.058L400.834,110.697z"/>
	<path style="fill:#57845E;" d="M266.032,277.096c0,0-1.878-26.294-10.017-48.206c0,0-23.79-10.643-45.076-11.269
		c0,0-20.144,19.572-24.416,33.807s-5.634,75.126-5.634,75.126s24.065,26.294,36.586,46.954h68.866v0
		c-3.813-8.388-12.176-13.773-21.39-13.773h-23.06l-12.17-23.79C229.721,335.945,252.259,305.268,266.032,277.096z"/>
	<path style="fill:#79B585;" d="M461.97,210.933c-0.02-0.02-0.05-0.04-0.11-0.08l-3.92-2.9c-10.53,9.15-26.99,9.39-26.99,9.39
		c-15.43-16.97-56.13-16.44-56.13-16.44c-6.16,23.19-18.26,40.55-32.61,53.54c-5.48,4.96-11.3,9.28-17.23,13.04
		c-1.89,1.2-3.79,2.34-5.69,3.43c-6.96,3.97-13.98,7.22-20.77,9.87l-0.01,0.01c-18.61,7.29-35.37,10.16-43.68,11.21
		c-3.49,0.45-5.49,0.58-5.49,0.58c-13.62-2.27-22.7-0.09-30.36,2.28c-11.06,3.43-19.15,7.27-33.63-1.23
		c-0.09-0.05-0.18-0.11-0.27-0.16c-9.03-5.31-17.13-10.59-24.01-15.37c-1.61-1.12-3.16-2.21-4.63-3.26
		c-13.05-9.35-20.7-16.09-20.7-16.09c-26.97,26.1-53.06,39.59-75.02,46.3c-7.85,2.39-15.18,3.93-21.82,4.86
		c-23.71,3.31-38.9-1.03-38.9-1.03c86.17-33.83,117.58-101.85,125.85-124.3c2.33-6.33,6.09-12.06,11.12-16.56
		c29.06-26.05,71.98-24.26,92.35-21.56c7.04,0.93,13.73,3.62,19.44,7.84l0,0c15.927,11.776,38.435,7.904,49.552-8.489
		c9.853-14.53,21.082-30.178,27.948-36.821c14.93-14.45,37.42-17.86,55.9-8.35c42.97,22.12,89.84,53.99,89.84,53.99
		C473.54,177.003,461.97,210.933,461.97,210.933z"/>
	<path style="fill:#6AA073;" d="M399.84,153.083c0,0,11.5-9.5,5.5-17s-27-26-34-12s6,37,6,37l9,2.5L399.84,153.083z"/>
	<path style="fill:#4D4D4D;" d="M386.579,127.501c0,0,9.631,3.845,14.744,14.214L396.991,146c0,0-11.529-3.338-18.229-7.339
		C378.762,138.661,380.543,128.329,386.579,127.501z"/>
	<path style="fill:#DBD6A9;" d="M460.191,146.811c0,0,10.149-15.229,3.149-25.229S443.776,136.3,443.776,136.3L460.191,146.811z"/>
	<path style="fill:#6AA073;" d="M258.34,277.083l-3.51,14.92c-3.49,0.45-5.49,0.58-5.49,0.58c-13.62-2.27-22.7-0.09-30.36,2.28
		l19.65-62.63C238.63,232.233,258.28,262.653,258.34,277.083z"/>
	<path style="fill:#6AA073;" d="M193.56,220.963l-0.22,69.12c0,0-3.46,1.82-8.26,3.39c-9.03-5.31-17.13-10.59-24.01-15.37
		c-1.61-1.12-3.16-2.21-4.63-3.26C157.54,239.593,193.56,220.963,193.56,220.963z"/>
	<path style="fill:#6AA073;" d="M298.52,280.783c9.68-12.8,6.95-36.43,6.95-36.43l13.82,26.56
		C312.33,274.883,305.31,278.133,298.52,280.783z"/>
	<path style="fill:#6AA073;" d="M342.21,254.443c-5.48,4.96-11.3,9.28-17.23,13.04l-6.91-20.79c0,0,12.5,0.09,24.13,7.74
		C342.2,254.433,342.21,254.433,342.21,254.443z"/>
	<path style="fill:#79B585;" d="M248.65,280.434c0,0-1.878-26.294-10.017-48.206c0,0-23.79-10.643-45.076-11.269
		c0,0-20.144,19.572-24.416,33.807c-4.272,14.234-5.634,75.126-5.634,75.126s24.065,26.294,36.586,46.954h68.866l0,0
		c-3.813-8.388-12.176-13.773-21.39-13.773h-23.06l-12.17-23.79C212.339,339.283,234.876,308.607,248.65,280.434z"/>
	<path style="fill:#79B585;" d="M305.474,244.348l9.135,47.836c1.43,7.487,9.933,11.203,16.399,7.167l21.192-13.229l14.603,20.955
		l-1.489-19.115c-0.674-8.651-8.983-14.605-17.391-12.462l-15.374,3.918v0c5.695-15.949-5.153-32.994-22.013-34.59L305.474,244.348z
		"/>
	<polygon style="fill:#6AA073;" points="224.508,363.073 212.84,363.073 218.061,350.47 	"/>
	<path style="fill:#6AA073;" d="M135.74,258.753c0,0,6.1-4.17,10.1-12.67l-2.04,19.28L135.74,258.753z"/>
	<polygon style="fill:#6AA073;" points="457.938,207.949 397.84,180.583 383.84,185.583 371.84,171.083 357.34,183.083 
		372.34,182.583 383.84,195.083 399.34,187.083 451.804,212.076 	"/>
	<circle style="fill:#6AA073;" cx="149.09" cy="185.333" r="8.75"/>
	<circle style="fill:#6AA073;" cx="235.34" cy="165.583" r="8.75"/>
	<circle style="fill:#6AA073;" cx="161.84" cy="172.083" r="3.5"/>
	<circle style="fill:#6AA073;" cx="165.84" cy="183.583" r="3.5"/>
	<circle style="fill:#6AA073;" cx="241.34" cy="181.083" r="3.5"/>
	<circle style="fill:#6AA073;" cx="353.34" cy="108.583" r="3.5"/>
	<circle style="fill:#6AA073;" cx="250.84" cy="171.583" r="5"/>
	<circle style="fill:#6AA073;" cx="354.34" cy="121.083" r="5"/>
	<circle style="fill:#6AA073;" cx="341.84" cy="115.583" r="5"/>
</g>
<g>
</g>
<g>
</g>
<g>
</g>
<g>
</g>
<g>
</g>
<g>
</g>
<g>
</g>
<g>
</g>
<g>
</g>
<g>
</g>
<g>
</g>
<g>
</g>
<g>
</g>
<g>
</g>
<g>
</g>
</svg>
