<?xml version="1.0" encoding="iso-8859-1"?>
<!-- Generator: Adobe Illustrator 18.0.0, SVG Export Plug-In . SVG Version: 6.00 Build 0)  -->
<!DOCTYPE svg PUBLIC "-//W3C//DTD SVG 1.1//EN" "http://www.w3.org/Graphics/SVG/1.1/DTD/svg11.dtd">
<svg version="1.1" id="Capa_1" xmlns="http://www.w3.org/2000/svg" xmlns:xlink="http://www.w3.org/1999/xlink" x="0px" y="0px"
	 viewBox="0 0 455.33 455.33" style="enable-background:new 0 0 455.33 455.33;" xml:space="preserve">
<g>
	<path style="fill:#9DBFD6;" d="M415.8,171.799c4,16.01,2.84,37.8,0.38,56.77c-3.6,27.9-17.85,53.33-39.68,71.06
		c-15.08,12.26-29.52,22.98-29.52,22.98c-21.96,17.57-95.16,23.42-95.16,23.42c-41-4.39-84.92-16.1-84.92-16.1
		s13.18-5.86-43.92-16.11c-29.96-5.38-62.34,5.77-86.35,17.58c-21.42,10.53-36.17,21.6-36.63,21.94
		c33.67-51.24,86.37-101.01,86.37-101.01c17.53-13.63,34.44-24.57,49.82-33.29c11.04-6.25,21.29-11.36,30.42-15.5
		c2.24-1.02,4.42-1.98,6.52-2.88c22.2-9.51,36.23-12.75,36.23-12.75c1.73-0.04,3.45-0.07,5.14-0.09c13.6-0.15,26.11,0.37,37.32,1.27
		c10.89,0.87,20.55,2.1,28.81,3.41c20.8,3.3,32.68,7.12,32.68,7.12c1.64,0.77,3.22,1.59,4.75,2.46c5.97,3.39,11.06,7.46,15.22,11.46
		c1.45,1.37,2.78,2.75,4,4.08c5.85,6.37,15.77,6.68,21.88,0.57l0.2-0.2c3.46-3.46,5.11-8.38,4.29-13.21
		c-1.84-10.65-5.92-20.1-9.89-27.3c-9.93-18.02-13.53-38.86-9.71-59.07c0.78-4.16,1.47-6.64,1.47-6.64
		c13.18-27.81,54.17-39.53,54.17-39.53c29.29,2.93,54.18,24.89,54.18,24.89l1.46,19.04c-23.43,11.71-57.1,14.64-57.1,14.64
		C392.37,135.199,415.8,171.799,415.8,171.799z"/>
	<path style="fill:#83AEC6;" d="M416.18,228.579c-2.98,23.11-13.28,44.54-29.16,61.29c-3.27,3.46-6.78,6.72-10.52,9.76
		c-6.15,5-12.19,9.74-17.18,13.6c-7.27,5.61-12.34,9.38-12.34,9.38c-3.05,2.44-7.09,4.65-11.78,6.66c-6.22,2.66-13.6,4.95-21.36,6.9
		h-0.01c-28.48,7.18-62.01,9.86-62.01,9.86c-18.94-2.02-38.5-5.62-54.07-8.9c-0.07-0.01-0.13-0.02-0.19-0.04l-0.13-0.02
		c-16.39-3.46-28.28-6.55-30.24-7.07l-0.29-0.07l0.01-0.01c0.16-0.07,1.47-0.73,1.28-1.93c-0.33-2.16-5.57-6.11-31.58-11.54
		c-4.03-0.84-8.55-1.72-13.63-2.63c-5.27-0.95-10.62-1.38-15.98-1.39c-25.12-0.05-50.58,9.24-70.37,18.97
		c1.26-1.36,53.54-57.07,124.41-54.18c71.74,2.93,101.6,31.7,161.05,21.96c87.9-14.4,96.26-106.41,93.71-127.38
		C419.8,187.809,418.64,209.599,416.18,228.579z"/>
	<polygon style="fill:#769CAD;" points="184.468,303.572 200.99,327.779 197.752,337.134 166.9,329.929 	"/>
	<path style="fill:#769CAD;" d="M150.79,293.319l-14.18,23.13c-4.03-0.84-8.55-1.72-13.63-2.63c-5.27-0.95-10.62-1.38-15.98-1.39
		L150.79,293.319z"/>
	<path style="fill:#769CAD;" d="M335.2,329.269c-6.22,2.66-13.6,4.95-21.36,6.9h-0.01l8.26-20.88L335.2,329.269z"/>
	<path style="fill:#769CAD;" d="M387.02,289.869c-3.27,3.46-6.78,6.72-10.52,9.76c-6.15,5-12.19,9.74-17.18,13.6l-3.55-12.59
		L387.02,289.869z"/>
	<path style="fill:#83AEC6;" d="M150.794,293.323c0,0-62.957,51.244-74.67,83.454c0,0,11.713,5.856,45.388-1.464
		c33.675-7.321,68.813-49.78,68.813-49.78l-5.856-21.962L150.794,293.323z"/>
	<path style="fill:#83AEC6;" d="M355.77,300.644c30.746,5.856,64.421,33.675,64.421,33.675c7.356,11.317,9.901,23.726,10.255,34.694
		c0.383,11.856-13.511,18.474-22.521,10.758c-17.437-14.931-38.977-26.419-38.977-26.419l-24.89-2.928
		c-10.249-8.785-21.962-35.139-21.962-35.139L355.77,300.644z"/>
	<polygon style="fill:#83AEC6;" points="173.99,226.779 195.99,211.779 215.99,215.779 222.99,229.779 198.99,232.779 	"/>
	<path style="fill:#83AEC6;" d="M225.07,198.769l-22.94,5.51l-29-3.62c22.2-9.51,36.23-12.75,36.23-12.75
		c1.73-0.04,3.45-0.07,5.14-0.09L225.07,198.769z"/>
	<polygon style="fill:#83AEC6;" points="229.99,199.779 259.99,202.779 264.99,216.779 238.99,217.779 225.99,210.779 	"/>
	<polygon style="fill:#83AEC6;" points="121.909,239.161 139.233,236.128 144.244,243.206 129.796,247.857 121.392,245.969 	"/>
	<polygon style="fill:#83AEC6;" points="255.49,227.779 275.49,224.779 286.49,237.779 270.49,243.779 246.49,237.779 	"/>
	<polygon style="fill:#83AEC6;" points="174.436,238.096 158.987,235.779 150.49,245.821 162.849,250.455 181.388,245.821 	"/>
	<path style="fill:#83AEC6;" d="M174.49,210.279l-4.5,8.5l-25.5,7l-8.3-6.74c11.04-6.25,21.29-11.36,30.42-15.5L174.49,210.279z"/>
	<path style="fill:#83AEC6;" d="M280.63,192.499l-7.14,4.28l-13.5-0.5l-8.17-7.19C262.71,189.959,272.37,191.189,280.63,192.499z"/>
	<polygon style="fill:#83AEC6;" points="294.99,202.779 279.99,204.779 279.49,214.279 295.49,224.279 308.99,212.279 	"/>
	<polygon style="fill:#83AEC6;" points="219.49,242.779 232.99,237.279 245.49,246.279 239.49,249.279 	"/>
	<polygon style="fill:#83AEC6;" points="191.99,253.779 205.49,247.779 219.49,255.279 204.99,258.279 	"/>
	<polygon style="fill:#83AEC6;" points="311.49,230.779 322.49,225.279 336.99,233.779 317.49,239.779 	"/>
	<polygon style="fill:#83AEC6;" points="296.99,240.279 285.49,249.279 297.99,253.779 309.49,248.279 	"/>
	<path style="fill:#83AEC6;" d="M333.28,213.539l-17.79,1.74l2.57-13.2C324.03,205.469,329.12,209.539,333.28,213.539z"/>
	<path style="fill:#4D4D4D;" d="M397.926,90.273c0,0,0.824-2.472,9.064-5.494c0,0,5.494,0.824,7.966,5.494H397.926z"/>
	<polyline style="fill:#83AEC6;" points="454.451,104.705 411.49,115.779 390.49,109.779 411.49,122.779 454.8,109.255 	"/>
</g>
<g>
</g>
<g>
</g>
<g>
</g>
<g>
</g>
<g>
</g>
<g>
</g>
<g>
</g>
<g>
</g>
<g>
</g>
<g>
</g>
<g>
</g>
<g>
</g>
<g>
</g>
<g>
</g>
<g>
</g>
</svg>
