<?xml version="1.0" encoding="iso-8859-1"?>
<!-- Generator: Adobe Illustrator 18.0.0, SVG Export Plug-In . SVG Version: 6.00 Build 0)  -->
<!DOCTYPE svg PUBLIC "-//W3C//DTD SVG 1.1//EN" "http://www.w3.org/Graphics/SVG/1.1/DTD/svg11.dtd">
<svg version="1.1" id="Capa_1" xmlns="http://www.w3.org/2000/svg" xmlns:xlink="http://www.w3.org/1999/xlink" x="0px" y="0px"
	 viewBox="0 0 459.875 459.875" style="enable-background:new 0 0 459.875 459.875;" xml:space="preserve">
<g>
	<path style="fill:#9FA396;" d="M274.737,251.664c0,0-1.873,26.259-12.261,48.226l-24.988,27.345
		c-3.665,4.011-8.37,6.916-13.592,8.414c-14.416,4.136-43.965,14.044-46.428,26.363l11.443,35.148h20.435l4.904,17.165h-39.235
		l-24.522-54.765l38.417-42.504l-10.626-20.435c0,0-3.27-34.33,1.635-53.13"/>
	<path style="fill:#BA8E88;" d="M376.195,69.858c0,0-72.854-36.011-135.539-20.37c-9.276,2.314-17.184,8.631-20.999,17.397
		c-0.496,1.14-0.923,2.317-1.248,3.516c-2.617,9.595,21.781,12.051,28.378,3.682s16.195-22.19,50.188-0.703
		c6.905,4.367,10.38,11.1,11.537,19.066"/>
	<path style="fill:#D2D8CA;" d="M459.753,145.627l-1.149,11.392c-10.826,9.588-26.925,14.541-26.925,14.541
		c-20.144-19.188-60.102-19.237-60.507-19.237l-23.516,13.242c0,0-4.034,45.426-31.29,92.287
		c-5.665,9.723-12.334,19.519-20.169,28.972c-0.785,0.956-1.594,1.9-2.403,2.844c-0.49,0.589-1.005,1.177-1.52,1.766
		c-6.608,7.504-13.781,13.131-21.236,17.239c-16.282,9.012-33.95,10.777-50.159,9.183c-13.867-1.361-26.667-5.174-36.66-9.024
		c-12.715-4.892-20.868-9.833-20.868-9.833s-19.593-14.357-37.531-19.421c-2.734-0.785-5.419-1.336-7.994-1.594
		c-19.519-1.962-35.238,23.565-52.084,44.041C48.884,342.513,0,354.847,0,354.847c21.885-13.413,34.6-41.699,34.6-41.699
		c5.199-31.584,19.752-64.038,33.129-88.768c13.646-25.257,26.079-42.471,26.079-42.471c3.261-3.543,7.075-6.768,11.268-9.711
		c10.924-7.663,24.411-13.328,37.346-17.459c24.142-7.724,46.334-10.091,46.334-10.091c5.873,0.454,11.844,1.667,17.729,3.372
		c0.012,0,0.012,0,0.012,0c30.824,8.926,59.257,31.486,59.257,31.486c13.94-48.712,50.085-97.645,50.085-97.645
		c6.903-4.414,15.755-7.234,24.534-9.012c18.048-3.666,35.814-2.992,35.814-2.992c25.245,8.534,47.143,26.091,62.31,40.951
		c6.602,6.469,11.936,12.427,15.724,16.91C458.421,132.688,460.406,139.152,459.753,145.627z"/>
	<path style="fill:#C6B1AC;" d="M438.496,110.808c-8.509,8.999-31.339,25.601-53.408,25.601c-36.206,0-45.782-20.427-45.782-20.427
		c-28.359,12.665-42.472,48.957-47.903,67.079c-3.237,10.79-10.973,19.654-21.236,24.289c-0.294,0.135-0.601,0.27-0.895,0.405
		c-8.117,3.58-17.202,4.095-25.772,1.827c-23.553-6.229-61.942-8.595-61.942-8.595c-43.33,13.082-53.138,42.508-53.138,42.508
		s-5.395,19.348-2.599,36.084c-2.734-0.785-5.419-1.336-7.994-1.594c-19.519-1.962-35.238,23.565-52.084,44.041
		C48.884,342.513,0,354.847,0,354.847c21.885-13.413,34.6-41.699,34.6-41.699c10.532-63.842,59.207-131.24,59.207-131.24
		c27.673-30.076,94.948-37.261,94.948-37.261c36.672,2.869,76.998,34.858,76.998,34.858c13.94-48.712,50.085-97.645,50.085-97.645
		c21.064-13.487,60.348-12.003,60.348-12.003C401.432,78.39,423.33,95.948,438.496,110.808z"/>
	<path style="fill:#B3B7AC;" d="M220.879,317.844v0.012c-13.867-1.361-26.667-5.174-36.66-9.024l38.094-49.129
		C222.313,259.703,229.952,296.572,220.879,317.844z"/>
	<path style="fill:#D2D8CA;" d="M223.241,251.664c0,0-1.873,26.259-12.261,48.226l-24.988,27.345
		c-3.665,4.011-8.37,6.916-13.592,8.414c-14.416,4.136-43.965,14.044-46.428,26.363l11.443,35.148h20.435l4.904,17.165H123.52
		L98.998,359.56l38.417-42.504l-10.626-20.435c0,0-3.27-34.33,1.635-53.13"/>
	<path style="fill:#B3B7AC;" d="M293.794,289.669c-0.49,0.589-1.005,1.177-1.52,1.766c-6.608,7.504-13.781,13.131-21.236,17.239
		c-4.353-19.777-17.557-37.396-17.557-37.396l22.486-36.868L293.794,289.669z"/>
	<path style="fill:#B3B7AC;" d="M316.366,257.852c-5.665,9.723-12.334,19.519-20.169,28.972l-13.83-32.565l24.252-16.491
		l4.622,9.612L316.366,257.852z"/>
	<path style="fill:#D2D8CA;" d="M277.431,226.684c0,0-3.106,22.69-13.935,40.495c0,0,29.413,37.254,25.9,69.15l15.283,11.397v0
		c7.442-5.6,11.562-14.592,10.874-23.88c-1.339-18.081-5.309-47.564-17.081-61.361c0,0,13.755-14.224,17.99-23.656"/>
	<path style="fill:#BA8E88;" d="M206.485,148.019c-1.017,0.13-51.171,6.382-67.867,42.327c-1.938,4.173-4.887,7.841-8.836,10.202
		c-3.278,1.959-7.59,3.592-12.727,3.418c-9.809-0.331,4.071-27.648,25.368-49.227c24.142-7.724,46.334-10.091,46.334-10.091
		C194.628,145.101,200.599,146.315,206.485,148.019z"/>
	<path style="fill:#BA8E88;" d="M88.129,224.917c0.157,2.501-0.121,5.017-1.073,7.335c-1.753,4.268-5.644,9.711-14.031,9.183
		c-4.782-0.307-5.885-7.638-5.297-17.055c13.646-25.257,26.079-42.471,26.079-42.471c3.261-3.543,7.075-6.768,11.268-9.711
		C97.815,186.626,87.219,210.438,88.129,224.917z"/>
	<path style="fill:#B3B7AC;" d="M371.172,152.323c0,0-24.96,4.216-40.853-5.897l17.337,19.139L371.172,152.323z"/>
	<path style="fill:#BA8E88;" d="M459.753,145.627l-1.149,11.392c-19.458-43.354-118.231-84.158-118.231-84.158v-0.012
		c18.048-3.666,35.814-2.992,35.814-2.992c25.245,8.534,47.143,26.091,62.31,40.951c6.602,6.469,11.936,12.427,15.724,16.91
		C458.421,132.688,460.406,139.152,459.753,145.627z"/>
	<circle style="fill:#666666;" cx="391.134" cy="110.293" r="7.356"/>
	<polygon style="fill:#B3B7AC;" points="458.604,157.019 439.849,148.673 411.24,150.308 393.258,142.952 411.24,155.621 
		439.134,152.862 452.681,161.534 	"/>
</g>
<g>
</g>
<g>
</g>
<g>
</g>
<g>
</g>
<g>
</g>
<g>
</g>
<g>
</g>
<g>
</g>
<g>
</g>
<g>
</g>
<g>
</g>
<g>
</g>
<g>
</g>
<g>
</g>
<g>
</g>
</svg>
