<?xml version="1.0" encoding="iso-8859-1"?>
<!-- Generator: Adobe Illustrator 18.0.0, SVG Export Plug-In . SVG Version: 6.00 Build 0)  -->
<!DOCTYPE svg PUBLIC "-//W3C//DTD SVG 1.1//EN" "http://www.w3.org/Graphics/SVG/1.1/DTD/svg11.dtd">
<svg version="1.1" id="Capa_1" xmlns="http://www.w3.org/2000/svg" xmlns:xlink="http://www.w3.org/1999/xlink" x="0px" y="0px"
	 viewBox="0 0 468.647 468.647" style="enable-background:new 0 0 468.647 468.647;" xml:space="preserve">
<g>
	<path style="fill:#6BD65F;" d="M468.647,162.332l-11.072,3.109l-1.38,6.921c-13.147,5.531-60.532,8.989-60.532,8.989
		s-24.831,24.436-52.857,46.185c-6.402,4.96-12.97,9.785-19.446,14.143c-2.428,1.64-4.846,3.206-7.243,4.701
		c-2.49,1.556-5.116,3.019-7.824,4.4c-5.717,2.926-11.85,5.479-18.138,7.72c-7.792,2.771-15.834,5.053-23.596,6.921
		c-11.237,2.698-21.915,4.534-30.496,5.759c-3.352,0.467-6.371,0.851-8.996,1.152c-6.568,0.768-10.563,1.027-10.563,1.027
		c-7.222,0-14.423-0.135-21.479-0.374c-21.396-0.716-41.558-2.376-57.703-4.057c-24.737-2.563-49.734-0.322-73.631,6.579
		c-2.345,0.674-4.711,1.359-7.077,2.023c0,0.01,0,0.01,0,0.01c-5.385,1.546-10.771,3.071-15.959,4.534
		c-0.436,0.125-0.872,0.249-1.307,0.374C18.231,288.406,0.737,293.21,0,293.407c12.223-8.664,25.349-17.598,38.486-26.315
		c1.069-0.706,2.127-1.411,3.186-2.117c5.396-3.559,10.792-7.087,16.104-10.542h0.01c1.048-0.674,2.086-1.349,3.123-2.023
		c6.184-3.995,12.244-7.886,18.107-11.601c1.297-0.83,2.584-1.65,3.86-2.449c8.913-5.645,17.266-10.864,24.685-15.482
		c1.941-1.204,3.818-2.366,5.624-3.476c9.069-5.603,16.395-10.065,21.147-12.95c3.341-2.013,5.416-3.258,5.935-3.57
		c0.093-0.052,0.135-0.083,0.135-0.083c7.087-4.42,14.06-8.228,20.784-11.508c1.38-0.674,2.74-1.328,4.088-1.951h0.01
		c6.464-2.999,12.67-5.51,18.501-7.606c1.079-0.384,2.137-0.757,3.185-1.11c9.328-3.206,17.629-5.354,24.405-6.797
		c1.401-0.301,2.74-0.571,4.005-0.809c9.38-1.774,14.952-2.044,14.952-2.044c2.241,0.083,4.483,0.197,6.724,0.353
		c1.1,0.062,2.19,0.145,3.289,0.239c6.392,0.519,12.753,1.287,18.875,2.2c1.141,0.176,2.283,0.353,3.404,0.529
		c8.27,1.339,16.031,2.905,22.838,4.431c0.944,0.218,1.878,0.436,2.781,0.633c10.117,2.366,17.754,4.555,21.126,5.562
		c0.986,0.291,1.598,0.488,1.816,0.55c0.052,0.021,0.083,0.031,0.083,0.031c6.817-1.982,13.707-4.337,20.566-6.931
		c0.965-0.353,1.93-0.726,2.885-1.1c7.108-2.76,14.153-5.759,20.981-8.882c1.069-0.477,2.117-0.955,3.165-1.453
		c7.014-3.248,13.77-6.589,20.13-9.878c0.986-0.508,1.961-1.017,2.916-1.515c9.494-4.981,17.993-9.764,24.945-13.811
		c1.038-0.612,2.044-1.204,3.009-1.774c2.611-1.542,4.956-2.954,6.998-4.2c6.485-3.956,14.226-5.329,21.67-3.818
		c13.031,2.645,22.851,6.327,22.851,6.327C465.537,144.693,468.647,162.332,468.647,162.332z"/>
	<path style="fill:#5EB252;" d="M238.636,262.288l-11.57,10.044c-6.568,0.768-10.563,1.027-10.563,1.027
		c-7.222,0-14.423-0.135-21.479-0.374l11.788-14.849l-19.456-39.327L238.636,262.288z"/>
	<path style="fill:#5EB252;" d="M266.58,265.401l-0.021,0.021c-11.237,2.698-21.915,4.534-30.496,5.759l12.088-29.905
		L266.58,265.401z"/>
	<path style="fill:#5EB252;" d="M308.293,250.781c-5.717,2.926-11.85,5.479-18.138,7.72l17.661-21.801L308.293,250.781z"/>
	<path style="fill:#5EB252;" d="M342.805,227.538c-6.402,4.96-12.97,9.785-19.446,14.143l-2.407-2.221l-0.508-23.419
		c0,0,10.999-3.217,22.351,11.487L342.805,227.538z"/>
	<path style="fill:#6BD65F;" d="M329.26,268.522c1.34,17.44-13.59,30.33-14.49,31.08c6.88-8.31,6.88-23.48,6.88-23.48
		c-2.05,7.49-17.5,21.69-17.98,22.13c8.29-14.52,9.68-24.2,9.68-24.2l-18.68,2.77c0-11.76,13.14-40.13,13.14-40.13l-3.46-21.44
		c0,0,22.83-4.84,30.44,13.83c4.4,10.8-3.46,21.6-10.87,28.79c-4.87,4.73-9.55,7.9-10.42,8.48l-0.15,0.09L329.26,268.522z"/>
	<path style="fill:#6BD65F;" d="M221.178,261.061c-1.353,1.837-32.017,44.084-32.017,44.084l8.117,31.961h25.509l2.706-5.143
		l-16.04-3.306l-4.96-21.675l50.054-42.615l-10.372-37.472l-19.841-10.654l-36.977,2.572L221.178,261.061z"/>
	<path style="fill:#54AD47;" d="M60.909,252.41c-0.166,0.56-0.342,1.11-0.508,1.66c-0.457,1.733-0.955,3.445-1.349,5.105
		c-0.363,1.671-0.768,3.289-1.048,4.835c-0.27,1.546-0.508,3.019-0.737,4.368c-0.156,1.37-0.291,2.625-0.405,3.736
		c-0.156,1.11-0.104,2.086-0.166,2.895c-0.052,1.494-0.083,2.397-0.083,2.522c-0.01-0.125-0.073-1.027-0.177-2.522
		c-0.031-0.809-0.187-1.785-0.156-2.916c0.01-1.131,0.01-2.407,0.01-3.798c0.083-1.39,0.176-2.895,0.28-4.483
		c0.114-1.598,0.353-3.258,0.54-5.001c0.187-1.422,0.436-2.885,0.664-4.379h0.01C58.834,253.759,59.872,253.084,60.909,252.41z"/>
	<path style="fill:#54AD47;" d="M82.876,238.36c-0.156,0.467-0.311,0.923-0.478,1.38c-0.56,1.733-1.09,3.486-1.619,5.209
		c-0.446,1.733-0.944,3.435-1.349,5.105c-0.353,1.67-0.757,3.279-1.048,4.825c-0.259,1.556-0.508,3.02-0.737,4.379
		c-0.145,1.359-0.28,2.615-0.405,3.725c-0.156,1.121-0.104,2.096-0.156,2.895c-0.052,1.608-0.083,2.532-0.083,2.532
		s-0.073-0.913-0.187-2.532c-0.031-0.799-0.187-1.785-0.145-2.916c0-1.121,0.01-2.397,0.01-3.787c0.083-1.39,0.177-2.895,0.27-4.493
		c0.125-1.588,0.363-3.258,0.55-4.991c0.228-1.733,0.54-3.507,0.82-5.323c0.228-1.173,0.446-2.366,0.695-3.559
		C80.313,239.979,81.6,239.159,82.876,238.36z"/>
	<path style="fill:#54AD47;" d="M113.186,219.403c-0.27,0.643-0.54,1.297-0.799,1.971c-0.654,1.588-1.266,3.238-1.899,4.929
		c-0.643,1.671-1.193,3.414-1.795,5.136c-0.571,1.733-1.09,3.486-1.619,5.209c-0.456,1.733-0.955,3.435-1.349,5.105
		c-0.363,1.67-0.768,3.279-1.048,4.825c-0.27,1.556-0.508,3.02-0.737,4.379c-0.156,1.359-0.291,2.615-0.405,3.725
		c-0.156,1.121-0.104,2.096-0.166,2.895c-0.052,1.608-0.083,2.532-0.083,2.532s-0.062-0.913-0.176-2.532
		c-0.031-0.799-0.187-1.785-0.156-2.916c0.01-1.121,0.01-2.397,0.01-3.787c0.093-1.39,0.176-2.895,0.28-4.493
		c0.125-1.588,0.353-3.258,0.54-4.991c0.228-1.733,0.54-3.507,0.82-5.323c0.353-1.795,0.695-3.621,1.079-5.448
		c0.436-1.805,0.799-3.642,1.276-5.406c0.197-0.789,0.405-1.567,0.602-2.335C109.502,221.675,111.38,220.513,113.186,219.403z"/>
	<path style="fill:#54AD47;" d="M140.268,202.883c-0.529,1.235-1.069,2.522-1.598,3.86c-0.654,1.587-1.266,3.237-1.888,4.929
		c-0.654,1.67-1.193,3.414-1.805,5.136c-0.571,1.733-1.09,3.486-1.619,5.209c-0.456,1.733-0.944,3.435-1.349,5.105
		c-0.363,1.671-0.768,3.279-1.048,4.825c-0.259,1.556-0.508,3.02-0.737,4.379c-0.145,1.359-0.28,2.615-0.405,3.725
		c-0.156,1.121-0.104,2.096-0.156,2.895c-0.062,1.608-0.093,2.532-0.093,2.532s-0.062-0.913-0.177-2.532
		c-0.031-0.799-0.187-1.785-0.145-2.916c0-1.121,0-2.397,0.01-3.787c0.083-1.39,0.176-2.895,0.27-4.493
		c0.124-1.587,0.353-3.258,0.54-4.991c0.228-1.733,0.55-3.507,0.82-5.323c0.353-1.795,0.695-3.621,1.09-5.448
		c0.426-1.805,0.799-3.642,1.276-5.406c0.353-1.401,0.706-2.781,1.079-4.13C137.674,204.44,139.749,203.195,140.268,202.883z"/>
	<path style="fill:#54AD47;" d="M165.275,189.342c-0.467,1.307-0.892,2.625-1.359,3.943c-0.56,1.743-1.09,3.486-1.619,5.209
		c-0.457,1.733-0.944,3.435-1.349,5.105c-0.363,1.671-0.768,3.279-1.048,4.825c-0.259,1.556-0.509,3.02-0.737,4.379
		c-0.145,1.37-0.28,2.625-0.405,3.735c-0.156,1.11-0.104,2.086-0.156,2.885c-0.052,1.619-0.083,2.542-0.083,2.542
		s-0.073-0.924-0.187-2.532c-0.031-0.809-0.187-1.795-0.145-2.916c0-1.131,0-2.407,0.01-3.798c0.083-1.391,0.176-2.895,0.27-4.483
		c0.124-1.598,0.363-3.258,0.55-5.001c0.218-1.722,0.54-3.497,0.809-5.313c0.353-1.795,0.695-3.632,1.09-5.448
		c0.093-0.394,0.187-0.789,0.27-1.183C162.567,190.618,163.926,189.965,165.275,189.342z"/>
	<path style="fill:#54AD47;" d="M186.972,180.626c-0.363,1.121-0.695,2.231-1.038,3.341c-0.456,1.733-0.955,3.435-1.349,5.105
		c-0.363,1.671-0.768,3.279-1.048,4.825c-0.27,1.556-0.508,3.02-0.737,4.379c-0.156,1.37-0.291,2.625-0.405,3.735
		c-0.156,1.11-0.104,2.086-0.166,2.885c-0.052,1.619-0.083,2.542-0.083,2.542s-0.062-0.924-0.176-2.532
		c-0.031-0.809-0.187-1.795-0.156-2.916c0.01-1.131,0.01-2.407,0.01-3.798c0.093-1.391,0.176-2.895,0.28-4.483
		c0.125-1.598,0.353-3.258,0.54-5.001c0.228-1.722,0.54-3.497,0.82-5.313c0.104-0.55,0.218-1.1,0.322-1.66
		C184.866,181.352,185.924,180.979,186.972,180.626z"/>
	<path style="fill:#54AD47;" d="M311.188,185.472c-0.301,1.349-0.612,2.656-0.841,3.912c-0.27,1.546-0.508,3.019-0.737,4.368
		c-0.156,1.37-0.29,2.625-0.405,3.735c-0.156,1.11-0.104,2.086-0.166,2.895c-0.052,1.608-0.083,2.532-0.083,2.532
		s-0.062-0.924-0.176-2.532c-0.031-0.809-0.187-1.795-0.156-2.916c0.01-1.131,0.01-2.407,0.01-3.798
		c0.083-1.39,0.176-2.895,0.28-4.483c0.093-1.37,0.291-2.791,0.457-4.265C310.358,185.212,310.97,185.41,311.188,185.472z"/>
	<path style="fill:#54AD47;" d="M334.722,177.472c-0.104,0.342-0.208,0.685-0.311,1.027c-0.457,1.743-0.955,3.445-1.349,5.105
		c-0.363,1.671-0.768,3.289-1.048,4.835c-0.27,1.546-0.508,3.02-0.737,4.369c-0.156,1.37-0.291,2.625-0.405,3.735
		c-0.166,1.11-0.104,2.086-0.166,2.895c-0.052,1.608-0.083,2.532-0.083,2.532s-0.062-0.923-0.176-2.532
		c-0.031-0.799-0.187-1.785-0.156-2.916c0.01-1.131,0.01-2.407,0.01-3.798c0.083-1.38,0.176-2.895,0.28-4.483
		c0.114-1.598,0.353-3.258,0.54-4.991c0.197-1.525,0.467-3.092,0.716-4.68C332.802,178.219,333.767,177.845,334.722,177.472z"/>
	<path style="fill:#54AD47;" d="M358.868,167.137c-0.28,0.903-0.55,1.805-0.83,2.698c-0.457,1.733-0.944,3.445-1.349,5.105
		c-0.363,1.671-0.768,3.289-1.048,4.836c-0.259,1.546-0.508,3.019-0.737,4.368c-0.145,1.37-0.28,2.625-0.405,3.735
		c-0.156,1.11-0.104,2.086-0.156,2.895c-0.052,1.608-0.083,2.532-0.083,2.532s-0.073-0.924-0.187-2.532
		c-0.031-0.809-0.187-1.795-0.145-2.916c0-1.131,0-2.407,0.011-3.798c0.083-1.39,0.176-2.895,0.27-4.483
		c0.125-1.598,0.363-3.258,0.55-5.001c0.218-1.723,0.54-3.497,0.82-5.313c0.042-0.218,0.083-0.446,0.125-0.674
		C356.772,168.112,357.82,167.635,358.868,167.137z"/>
	<path style="fill:#54AD47;" d="M381.914,155.743c-0.083,0.259-0.156,0.519-0.239,0.778c-0.457,1.733-0.955,3.435-1.349,5.105
		c-0.363,1.67-0.768,3.279-1.048,4.825c-0.27,1.556-0.508,3.02-0.737,4.379c-0.145,1.37-0.291,2.615-0.405,3.725
		c-0.156,1.121-0.104,2.096-0.166,2.895c-0.052,1.619-0.083,2.532-0.083,2.532s-0.062-0.913-0.176-2.522
		c-0.031-0.809-0.187-1.795-0.156-2.916c0.011-1.131,0.011-2.407,0.011-3.798c0.093-1.39,0.176-2.895,0.28-4.493
		c0.125-1.588,0.353-3.258,0.54-4.991c0.177-1.318,0.394-2.646,0.612-4.005C379.984,156.75,380.959,156.241,381.914,155.743z"/>
	<path style="fill:#54AD47;" d="M409.868,140.158c-0.125,0.394-0.239,0.778-0.363,1.173c-0.457,1.733-0.944,3.435-1.349,5.105
		c-0.353,1.671-0.757,3.279-1.048,4.825c-0.259,1.556-0.508,3.02-0.737,4.379c-0.145,1.359-0.28,2.615-0.405,3.725
		c-0.156,1.121-0.104,2.096-0.156,2.895c-0.052,1.608-0.083,2.532-0.083,2.532s-0.073-0.913-0.187-2.532
		c-0.031-0.799-0.187-1.785-0.145-2.916c0-1.121,0.01-2.397,0.01-3.787c0.083-1.39,0.177-2.895,0.27-4.493
		c0.125-1.588,0.363-3.258,0.55-4.991c0.176-1.359,0.405-2.739,0.633-4.14C407.896,141.32,408.903,140.729,409.868,140.158z"/>
	<path style="fill:#54AD47;" d="M215.383,173.02c-0.01,0.021-0.01,0.041-0.021,0.062c-0.654,1.681-1.193,3.414-1.805,5.147
		c-0.56,1.733-1.09,3.476-1.619,5.198c-0.446,1.733-0.944,3.445-1.349,5.105c-0.353,1.671-0.757,3.289-1.048,4.835
		c-0.259,1.546-0.508,3.02-0.737,4.369c-0.145,1.37-0.28,2.625-0.405,3.735c-0.156,1.11-0.104,2.086-0.156,2.895
		c-0.052,1.608-0.083,2.532-0.083,2.532s-0.072-0.923-0.187-2.532c-0.031-0.809-0.187-1.785-0.145-2.916
		c0-1.131,0.01-2.407,0.01-3.798c0.083-1.391,0.176-2.895,0.27-4.483c0.124-1.598,0.363-3.258,0.55-5.001
		c0.229-1.722,0.54-3.497,0.82-5.313c0.342-1.795,0.685-3.632,1.079-5.448c0.28-1.193,0.54-2.387,0.82-3.58
		C212.779,173.529,214.117,173.259,215.383,173.02z"/>
	<path style="fill:#54AD47;" d="M239.799,199.968c0.207,1.287,0.332,2.137,0.373,2.407c-0.073-0.259-0.291-1.089-0.633-2.355
		c-0.177-0.789-0.519-1.723-0.695-2.833c-0.207-1.11-0.446-2.366-0.706-3.735c-0.176-1.38-0.374-2.874-0.571-4.452
		c-0.187-1.588-0.27-3.268-0.415-5.012c-0.104-1.743-0.125-3.538-0.197-5.375c0.011-1.826,0-3.694,0.042-5.562
		c0.021-0.571,0.042-1.152,0.062-1.723c1.1,0.062,2.19,0.145,3.289,0.239c-0.083,0.571-0.166,1.152-0.249,1.723
		c-0.228,1.816-0.415,3.632-0.612,5.416c-0.125,1.795-0.28,3.559-0.363,5.271c-0.042,1.712-0.135,3.372-0.124,4.939
		c0.042,1.577,0.072,3.061,0.104,4.431c0.114,1.37,0.218,2.636,0.311,3.746C239.467,198.214,239.705,199.169,239.799,199.968z"/>
	<path style="fill:#54AD47;" d="M265.677,205.623c-0.073-0.187-0.394-1.006-0.892-2.324c-0.27-0.768-0.706-1.66-0.996-2.75
		c-0.322-1.089-0.685-2.304-1.09-3.642c-0.322-1.349-0.674-2.822-1.038-4.369c-0.343-1.556-0.602-3.227-0.934-4.939
		c-0.28-1.723-0.498-3.507-0.757-5.323c-0.187-1.826-0.384-3.673-0.54-5.531c-0.062-0.996-0.145-1.992-0.207-2.978
		c1.141,0.176,2.283,0.353,3.404,0.529c-0.031,0.778-0.062,1.567-0.093,2.355c-0.031,1.826-0.031,3.653-0.031,5.458
		c0.062,1.785,0.083,3.559,0.187,5.271c0.145,1.702,0.218,3.362,0.394,4.929c0.207,1.556,0.394,3.04,0.571,4.4
		c0.249,1.349,0.488,2.594,0.695,3.684c0.166,1.11,0.508,2.034,0.685,2.822C265.397,204.575,265.625,205.436,265.677,205.623z"/>
	<path style="fill:#54AD47;" d="M291.411,204.398c-0.072-0.187-0.394-1.006-0.892-2.324c-0.27-0.768-0.706-1.66-0.996-2.75
		c-0.322-1.079-0.685-2.304-1.09-3.632c-0.322-1.359-0.664-2.822-1.038-4.379c-0.342-1.556-0.602-3.217-0.934-4.939
		c-0.28-1.712-0.498-3.507-0.758-5.323c-0.083-0.768-0.156-1.546-0.239-2.324c0.944,0.218,1.878,0.436,2.781,0.633
		c-0.01,0.508-0.01,1.017-0.01,1.525c0.062,1.795,0.083,3.57,0.187,5.271c0.145,1.712,0.218,3.372,0.394,4.929
		c0.208,1.567,0.394,3.04,0.571,4.4c0.249,1.349,0.488,2.594,0.695,3.694c0.176,1.11,0.508,2.023,0.685,2.812
		C291.131,203.35,291.359,204.212,291.411,204.398z"/>
	<path style="fill:#54AD47;" d="M40.655,282.076c-0.01-0.301-0.021-0.602-0.031-0.913c-0.021-1.567,0.062-3.227,0.083-4.939
		c0.073-1.712,0.218-3.476,0.322-5.271c0.187-1.795,0.353-3.611,0.571-5.416c0.031-0.187,0.052-0.374,0.073-0.56
		c-1.058,0.706-2.117,1.411-3.186,2.117c0,1.266,0.01,2.532,0.01,3.787c0.083,1.826,0.125,3.632,0.239,5.365
		c0.156,1.743,0.259,3.424,0.446,5.012c0.052,0.405,0.114,0.809,0.166,1.193L40.655,282.076z"/>
	<polygon style="fill:#5EB252;" points="457.575,165.442 439.593,168.904 423.682,167.521 417.802,172.363 430.946,170.288 
		443.397,171.671 457.031,168.172 	"/>
	<path style="fill:#666666;" d="M430.297,140.058c0,0-0.814,2.016-0.514,4.006c0,0,5.237,1.893,9.81,0.628l1.791-2.481
		c0,0-1.878-2.94-5.446-3.591C435.938,138.621,432.214,138.499,430.297,140.058z"/>
	<path style="fill:#5EB252;" d="M323.92,257.872c-4.87,4.73-9.55,7.9-10.42,8.48l-0.15,0.09l-8.27-1.33L323.92,257.872z"/>
	<polygon style="fill:#5EB252;" points="209.453,328.657 203.417,327.449 207.6,320.559 	"/>
</g>
<g>
</g>
<g>
</g>
<g>
</g>
<g>
</g>
<g>
</g>
<g>
</g>
<g>
</g>
<g>
</g>
<g>
</g>
<g>
</g>
<g>
</g>
<g>
</g>
<g>
</g>
<g>
</g>
<g>
</g>
</svg>
